<svg width="36" height="47" viewBox="0 0 36 47" fill="none" xmlns="http://www.w3.org/2000/svg">
<g id="Group 13" filter="url(#filter0_d_24_23)">
<path id="Vector" d="M17.7496 16.4996C19.2684 16.4996 20.4995 15.2684 20.4995 13.7497C20.4995 12.2309 19.2684 10.9998 17.7496 10.9998C16.2309 10.9998 14.9997 12.2309 14.9997 13.7497C14.9997 15.2684 16.2309 16.4996 17.7496 16.4996Z" fill="#F9C0C9"/>
<path id="Vector_2" d="M17.7496 0C10.1684 0 4 5.89944 4 13.1481C4 16.6001 5.57347 21.1907 8.67659 26.7928C11.1687 31.2907 14.0518 35.358 15.5514 37.3818C15.8048 37.7276 16.1361 38.0088 16.5185 38.2026C16.9008 38.3965 17.3235 38.4975 17.7522 38.4975C18.1809 38.4975 18.6036 38.3965 18.9859 38.2026C19.3683 38.0088 19.6996 37.7276 19.953 37.3818C21.45 35.358 24.3357 31.2907 26.8278 26.7928C29.9258 21.1925 31.4992 16.6018 31.4992 13.1481C31.4992 5.89944 25.3308 0 17.7496 0ZM17.7496 19.2495C16.6618 19.2495 15.5985 18.9269 14.6941 18.3226C13.7896 17.7182 13.0847 16.8593 12.6684 15.8543C12.2521 14.8493 12.1432 13.7435 12.3554 12.6766C12.5677 11.6098 13.0915 10.6298 13.8606 9.86064C14.6298 9.09147 15.6098 8.56766 16.6766 8.35545C17.7435 8.14323 18.8493 8.25215 19.8543 8.66842C20.8593 9.08469 21.7182 9.78962 22.3226 10.6941C22.9269 11.5985 23.2495 12.6618 23.2495 13.7496C23.2479 15.2078 22.6679 16.6058 21.6368 17.6368C20.6058 18.6679 19.2078 19.2479 17.7496 19.2495Z" fill="#F9C0C9"/>
</g>
<defs>
<filter id="filter0_d_24_23" x="0" y="0" width="35.4992" height="46.4976" filterUnits="userSpaceOnUse" color-interpolation-filters="sRGB">
<feFlood flood-opacity="0" result="BackgroundImageFix"/>
<feColorMatrix in="SourceAlpha" type="matrix" values="0 0 0 0 0 0 0 0 0 0 0 0 0 0 0 0 0 0 127 0" result="hardAlpha"/>
<feOffset dy="4"/>
<feGaussianBlur stdDeviation="2"/>
<feComposite in2="hardAlpha" operator="out"/>
<feColorMatrix type="matrix" values="0 0 0 0 0 0 0 0 0 0 0 0 0 0 0 0 0 0 0.25 0"/>
<feBlend mode="normal" in2="BackgroundImageFix" result="effect1_dropShadow_24_23"/>
<feBlend mode="normal" in="SourceGraphic" in2="effect1_dropShadow_24_23" result="shape"/>
</filter>
</defs>
</svg>
