<svg width="68" height="54" viewBox="0 0 68 54" fill="none" xmlns="http://www.w3.org/2000/svg">
<g id="Vector" filter="url(#filter0_d_24_19)">
<path d="M56.5 0H11.5C9.51153 0.00207552 7.60511 0.773763 6.19905 2.14574C4.79299 3.51771 4.00213 5.37792 4 7.31818V38.6818C4.00213 40.6221 4.79299 42.4823 6.19905 43.8543C7.60511 45.2262 9.51153 45.9979 11.5 46H56.5C58.4885 45.9979 60.3949 45.2262 61.8009 43.8543C63.207 42.4823 63.9979 40.6221 64 38.6818V7.31818C63.9979 5.37792 63.207 3.51771 61.8009 2.14574C60.3949 0.773763 58.4885 0.00207552 56.5 0ZM54.6009 12.1051L35.3152 26.7414C34.9391 27.0267 34.4763 27.1816 34 27.1816C33.5237 27.1816 33.0609 27.0267 32.6848 26.7414L13.3991 12.1051C13.1725 11.9381 12.9822 11.7288 12.8392 11.4895C12.6962 11.2501 12.6034 10.9854 12.5661 10.7108C12.5289 10.4361 12.548 10.1569 12.6222 9.88954C12.6965 9.62213 12.8245 9.37179 12.9988 9.15306C13.1731 8.93434 13.3902 8.75159 13.6375 8.61544C13.8848 8.4793 14.1573 8.39246 14.4393 8.35999C14.7213 8.32751 15.0071 8.35005 15.2801 8.42628C15.553 8.5025 15.8078 8.63091 16.0295 8.80403L34 22.442L51.9705 8.80403C52.4199 8.47291 52.9848 8.32769 53.543 8.39976C54.1012 8.47184 54.608 8.75542 54.9536 9.18918C55.2992 9.62295 55.456 10.172 55.39 10.7177C55.324 11.2633 55.0405 11.7617 54.6009 12.1051Z" fill="#F9C0C9"/>
</g>
<defs>
<filter id="filter0_d_24_19" x="0" y="0" width="68" height="54" filterUnits="userSpaceOnUse" color-interpolation-filters="sRGB">
<feFlood flood-opacity="0" result="BackgroundImageFix"/>
<feColorMatrix in="SourceAlpha" type="matrix" values="0 0 0 0 0 0 0 0 0 0 0 0 0 0 0 0 0 0 127 0" result="hardAlpha"/>
<feOffset dy="4"/>
<feGaussianBlur stdDeviation="2"/>
<feComposite in2="hardAlpha" operator="out"/>
<feColorMatrix type="matrix" values="0 0 0 0 0 0 0 0 0 0 0 0 0 0 0 0 0 0 0.25 0"/>
<feBlend mode="normal" in2="BackgroundImageFix" result="effect1_dropShadow_24_19"/>
<feBlend mode="normal" in="SourceGraphic" in2="effect1_dropShadow_24_19" result="shape"/>
</filter>
</defs>
</svg>
