<svg width="47" height="47" viewBox="0 0 47 47" fill="none" xmlns="http://www.w3.org/2000/svg">
<g id="Vector" filter="url(#filter0_d_24_21)">
<path d="M35.2501 38.9997C33.5504 38.9997 31.1629 38.3851 27.5878 36.388C23.2403 33.9505 19.8776 31.7001 15.5537 27.3883C11.3847 23.2228 9.35592 20.5258 6.51652 15.36C3.30881 9.52732 3.85562 6.46996 4.46686 5.16327C5.19478 3.60151 6.26924 2.66742 7.65803 1.74028C8.44685 1.22356 9.28162 0.78061 10.1517 0.417054C10.2388 0.379621 10.3198 0.343929 10.3921 0.311718C10.8231 0.117587 11.4761 -0.175787 12.3033 0.137609C12.8553 0.344799 13.3481 0.768755 14.1196 1.53048C15.7017 3.0905 17.8637 6.56485 18.6612 8.27112C19.1967 9.42111 19.5511 10.1802 19.552 11.0316C19.552 12.0284 19.0504 12.7971 18.4418 13.6267C18.3278 13.7825 18.2146 13.9314 18.1048 14.0759C17.4422 14.9465 17.2968 15.1981 17.3926 15.6473C17.5868 16.55 19.0348 19.2374 21.4144 21.6114C23.7941 23.9854 26.4045 25.3417 27.3109 25.5349C27.7793 25.635 28.0362 25.4836 28.9348 24.7976C29.0637 24.6992 29.196 24.5973 29.3344 24.4955C30.2626 23.8051 30.9958 23.3168 31.9692 23.3168H31.9744C32.8217 23.3168 33.547 23.6841 34.7485 24.29C36.3158 25.0805 39.8953 27.2142 41.4652 28.7977C42.2288 29.5673 42.6546 30.0583 42.8627 30.6093C43.1762 31.439 42.881 32.0893 42.6886 32.5245C42.6564 32.5968 42.6207 32.676 42.5832 32.7639C42.2167 33.6324 41.7711 34.4652 41.2519 35.252C40.3263 36.6361 39.3886 37.7078 37.823 38.4364C37.0191 38.8166 36.1393 39.0092 35.2501 38.9997Z" fill="#F9C0C9"/>
</g>
<defs>
<filter id="filter0_d_24_21" x="0" y="0" width="47" height="47" filterUnits="userSpaceOnUse" color-interpolation-filters="sRGB">
<feFlood flood-opacity="0" result="BackgroundImageFix"/>
<feColorMatrix in="SourceAlpha" type="matrix" values="0 0 0 0 0 0 0 0 0 0 0 0 0 0 0 0 0 0 127 0" result="hardAlpha"/>
<feOffset dy="4"/>
<feGaussianBlur stdDeviation="2"/>
<feComposite in2="hardAlpha" operator="out"/>
<feColorMatrix type="matrix" values="0 0 0 0 0 0 0 0 0 0 0 0 0 0 0 0 0 0 0.25 0"/>
<feBlend mode="normal" in2="BackgroundImageFix" result="effect1_dropShadow_24_21"/>
<feBlend mode="normal" in="SourceGraphic" in2="effect1_dropShadow_24_21" result="shape"/>
</filter>
</defs>
</svg>
