<?xml version="1.0" encoding="utf-8"?>
<!-- Generator: Adobe Illustrator 28.1.0, SVG Export Plug-In . SVG Version: 6.00 Build 0)  -->
<svg version="1.1" id="Layer_1" xmlns="http://www.w3.org/2000/svg" xmlns:xlink="http://www.w3.org/1999/xlink" x="0px" y="0px"
	 viewBox="0 0 1017.1 740.2" style="enable-background:new 0 0 1017.1 740.2;" xml:space="preserve">
<style type="text/css">
	.st0{clip-path:url(#SVGID_00000150808305278801210010000016981033599234447515_);}
	.st1{fill:url(#SVGID_00000129206473680786368980000001188028563447075226_);}
	.st2{fill:#245B53;}
	.st3{fill:#F9C0C9;}
	.st4{fill:#DD9BA8;}
</style>
<g>
	<defs>
		<rect id="SVGID_1_" x="8.5" y="68.1" width="1039.2" height="961.6"/>
	</defs>
	<clipPath id="SVGID_00000013153326930582015220000005222992707670669453_">
		<use xlink:href="#SVGID_1_"  style="overflow:visible;"/>
	</clipPath>
	<g style="clip-path:url(#SVGID_00000013153326930582015220000005222992707670669453_);">
		
			<linearGradient id="SVGID_00000105404064321861138750000006205763455257351862_" gradientUnits="userSpaceOnUse" x1="761.1566" y1="-149.3629" x2="176.4669" y2="435.3374" gradientTransform="matrix(1 0 0 -1 0 858.2839)">
			<stop  offset="0" style="stop-color:#89A57D;stop-opacity:0"/>
			<stop  offset="1" style="stop-color:#183F3A;stop-opacity:0.25"/>
		</linearGradient>
		<path style="fill:url(#SVGID_00000105404064321861138750000006205763455257351862_);" d="M1068.4,805.8l-714-714l-10.7,55.7H178.3
			l162.2,162.2L261,548.5l54.4,54.4L261,726.8L120.9,465.1L8.5,764.1l265.6,265.6h572.8l2.6-126.9L1068.4,805.8z"/>
		<path class="st2" d="M400.9,551.6c-0.8-3.3-2.1-12.5-3.8-27.6c-1.6-12.5-2.9-22.9-4.1-31.2c-1.8,9.8-4.3,19.6-7.5,29.4
			c-3.2,9.8-7.3,19.8-12.2,30L260.7,781.4l-112.6-234c-4.7-9.6-8.8-18.9-12.2-27.9c-3.4-9-6.4-17.9-9-26.7c-0.2,9-0.9,18.5-2.2,28.4
			c-1.3,9.9-3.2,20.2-5.7,31L72.9,764.1H8.5l101.7-448.5l127,271.6c2,4.3,4.9,11.5,9,21.5c4,10,8.9,22.3,14.5,37
			c4.1-12.3,10.6-28,19.4-47c2.4-5.1,4.1-9,5.3-11.8l124-271.3l104,448.5h-65L400.9,551.6L400.9,551.6z"/>
		<path class="st3" d="M230.8,173.8v43.3h-52.6v-43.3h-41.9l-15.5,90.7l140.1,284V173.8H230.8z"/>
		<path class="st4" d="M385.6,173.8h-41.9v43.3h-52.6v-43.3H261v374.7l140.1-284L385.6,173.8z"/>
		<path class="st4" d="M261,147.5h82.7l10.7-55.7l-46.7,27.8L261,68.1V147.5z"/>
		<path class="st3" d="M261,147.5h-82.7l-10.7-55.7l46.7,27.8L261,68.1V147.5z"/>
	</g>
</g>
</svg>
